<?xml version="1.0" encoding="UTF-8"?>
<svg id="a" data-name="Layer 1" xmlns="http://www.w3.org/2000/svg" width="355.36658" height="38.15113" viewBox="0 0 355.36658 38.15113">
  <path d="M153.24367,.89962h7.65966l15.591,23.28432V.89962h7.89296V37.25091h-7.65966l-15.591-23.28372v23.28372h-7.89296V.89962Z" fill="#ff9e1b"/>
  <path d="M125.58979,.64051h7.82966l15.45463,36.6107h-8.36001l-3.32354-8.15296h-15.37182l-3.32354,8.15296h-8.15296L125.58979,.64051Zm9.39461,22.15327l-5.47978-15.30589-5.47978,15.30589h10.95956Z" fill="#ff9e1b"/>
  <path d="M.55396,.89992H24.62525v3.73883H4.65633v12.41121H22.02877v3.73883H4.65633v12.72358H24.62525v3.73883H.55396V.89992Z" fill="#ff9e1b"/>
  <path d="M32.87632,.89992h4.10236V33.51238h19.96893v3.73883h-24.07129V.89992Z" fill="#ff9e1b"/>
  <path d="M228.78758,.89962h7.99648V15.28437h14.74828V.89962h7.99768V37.25091h-7.99768v-14.593h-14.74828v14.593h-7.99648V.89962Z" fill="#ff9e1b"/>
  <path d="M268.61108,.89962h7.99648V37.25091h-7.99648V.89962Z" fill="#ff9e1b"/>
  <path d="M294.15816,8.27376h-11.06121V.89962h30.1189v7.37414h-11.06121v28.97715h-7.99648V8.27376Z" fill="#ff9e1b"/>
  <path d="M335.48811,.27638c-10.66917,0-19.3183,8.41651-19.3183,18.79889s8.64913,18.79889,19.3183,18.79889,19.3183-8.41658,19.3183-18.79889S346.15735,.27638,335.48811,.27638Zm0,30.22363c-6.05138,0-10.95709-5.11501-10.95709-11.42474s4.90571-11.42474,10.95709-11.42474,10.95709,5.11501,10.95709,11.42474-4.90564,11.42474-10.95709,11.42474Z" fill="#ff9e1b"/>
  <path d="M209.78092,30.36504c-6.16506,0-11.16278-5.0546-11.16278-11.28977s4.99772-11.28977,11.16278-11.28977c3.18842,0,6.0976,1.11983,8.4238,3.02309l4.13096-6.16607c-3.39411-2.78261-7.76024-4.48312-12.55476-4.48312-10.78029,0-19.5194,8.46895-19.5194,18.91587s8.73911,18.91587,19.5194,18.91587c4.78707,0,9.16599-1.67599,12.56161-4.44761l-4.13781-6.17865c-2.46276,1.77722-5.24162,3.00017-8.4238,3.00017Z" fill="#ff9e1b"/>
  <path d="M98.45645,24.26882c4.62178-1.71413,7.78943-5.4012,7.78943-11.26886v-.10412c0-3.42706-1.09059-6.28355-3.11589-8.30885-2.38883-2.38883-5.97178-3.68707-10.59356-3.68707h-23.21446l4.41816,6.58802v29.76297h7.90135V7.48794h8.98152c5.44507,0,7.52168,2.58911,7.52168,5.82078,0,5.56454-5.11291,6.91747-12.00179,6.2515l11.8459,17.69099h9.34768l-8.88003-12.98239Z" fill="#ff9e1b"/>
</svg>